<?xml version="1.0" encoding="utf-8"?>
<!-- Generator: Adobe Illustrator 24.1.1, SVG Export Plug-In . SVG Version: 6.00 Build 0)  -->
<svg version="1.1" id="Capa_1" xmlns="http://www.w3.org/2000/svg" xmlns:xlink="http://www.w3.org/1999/xlink" x="0px" y="0px"
	 viewBox="0 0 727.4 736.1" style="enable-background:new 0 0 727.4 736.1;" xml:space="preserve">
<style type="text/css">
	.st0{fill:#F8AF2C;}
	.st1{fill:none;}
	.st2{fill:#FFFFFF;}
	.st3{font-family:'GothamRounded-Bold';}
	.st4{font-size:65px;}
</style>
<g>
	<path class="st0" d="M709.7,368c-7.1-0.6-14,6.4-18.9,17.8c-42.7,7.4-78.6-13.6-97.4-28c-0.4-7.2-1.3-14.3-2.4-21.4
		c11.5-16.2,32.5-38.4,64.5-43.9c7,7.4,14.3,11,19.6,8.6c8.9-4.1,8.7-23.6-0.5-43.6c-9.2-20-23.8-32.8-32.8-28.7
		c-5.3,2.4-7.3,10.3-6.2,20.4c-20.9,17.3-45.6,21.1-64.8,20.9c-2.1-4.4-4.6-8.5-6.9-12.8c11.2-20.8,30.5-45.8,62.4-57.7
		c10,7.3,19.6,9.9,25.4,5.8c9.7-6.9,5-30.2-10.5-52c-15.5-21.8-36-33.8-45.7-26.9c-5.8,4.1-6.4,14-2.8,25.9
		c-23.8,28.7-57.4,38.1-81.4,41c-4.9-4.1-9.7-8.4-14.9-12.1c-0.7-0.5-1.6-0.9-2.3-1.4c2.1-19.6,9.2-46.3,31.6-65.9
		c9.8,2.7,17.9,2,21.2-2.9c5.5-8.1-4.8-24.7-23.1-37c-18.2-12.3-37.4-15.6-42.9-7.5c-3.3,4.8-0.9,12.6,5.3,20.7
		c-12,34.6-42.5,51.9-60,59.4c-11.8-16.4-37.4-59-24.5-107.3c11.8-3.9,19.4-10.2,19.4-17.3c0-11.9-21.7-21.6-48.4-21.6
		c-26.7,0-48.4,9.7-48.4,21.6c0,7.1,7.7,13.4,19.4,17.3c10.2,38.4-3.9,73.2-16,94.1c-7.6-10.6-15.4-26.1-13.6-44.9
		c6.1-3.2,9.7-7.3,9-11.2c-1.1-6.5-13.8-9.8-28.4-7.4c-14.6,2.4-25.5,9.7-24.4,16.2c0.6,3.9,5.4,6.6,12.2,7.6
		c7.5,16.4,5.7,33,2.3,45.3c-19-14-41.2-36.8-48.6-70.2c8.7-8.9,12.6-18,9.3-24.3c-5.5-10.6-29.2-9.3-52.9,3
		c-23.8,12.3-38.6,30.8-33.1,41.4c3.2,6.3,12.9,8.4,25.2,6.5c27.7,30.5,30.3,69.6,28.7,93.6c-1.7,1.4-3.4,2.9-5.1,4.3
		c-19.9-1.2-49.2-7.2-70.6-30.8c2.5-9.9,1.6-18-3.2-21.1c-8.2-5.3-24.6,5.3-36.5,23.7c-11.9,18.4-14.9,37.7-6.7,43
		c4.9,3.2,12.6,0.7,20.6-5.7c25.1,8.2,41.4,26.2,51.6,42.2c-0.3,0.5-0.6,0.9-0.9,1.4c-16.4,6.6-67.2,23.1-112.9-3.3
		c-0.7-12.4-4.8-21.4-11.6-23.3c-11.5-3.1-26.5,15.3-33.5,41.1c-7,25.8-3.3,49.3,8.2,52.4c6.8,1.9,14.9-3.9,21.8-14.2
		c44,0.2,75.6,27.8,91.3,45.2c-17.3,9.5-43.6,19.2-72.9,11.8c-3.4-9.6-8.6-15.9-14.4-15.8c-9.8,0.1-17.6,18-17.3,40
		c0.3,22,8.4,39.7,18.2,39.6c5.8-0.1,10.9-6.4,14-16.1c31.2-8.7,59.6,2.3,77,12c2.2,11.6,5.1,22.9,9,33.8
		c-10.5,21.5-32.6,55.1-72.9,67.8c-9.6-7.8-19-10.9-25-7.2c-10.1,6.4-6.7,29.9,7.6,52.5c14.3,22.6,34.1,35.7,44.2,29.3
		c6-3.8,7.2-13.6,4.2-25.7c27.7-29.9,65.9-36.2,90-36.9c2.6,2.8,5.3,5.5,8,8.2c1.2,19.7-1.2,51.9-24.4,76.9c-10.1-1.7-18,0-20.8,5.1
		c-4.6,8.7,7.4,24,26.8,34.3c19.4,10.3,38.9,11.6,43.5,2.9c2.7-5.1-0.4-12.6-7.5-20c6.2-26.8,23.9-45,39.5-56.4
		c8.7,17.8,26.8,64.7,5.5,110.4c-12.3,1.8-20.9,6.6-22.2,13.6c-2.1,11.8,17.5,25.1,43.9,29.8c26.3,4.7,49.4-1,51.5-12.8
		c1.2-7-5.2-14.5-16.1-20.4c-3.7-44.3,21.6-78.5,37.5-95.5c6.6,0.2,13.2,0.1,19.7-0.2c15.2,12.7,36.2,36,38.9,68.8
		c-8,6.3-12.2,13.3-10.3,18.8c3.3,9.2,22.7,10.7,43.4,3.4c20.7-7.4,34.8-20.9,31.5-30.1c-2-5.5-9.6-8.2-19.8-8
		c-15.5-22.6-17-47.8-15-66.9c5.5-2,10.8-4.4,16.1-6.8c22.3,8.6,57.4,27.7,73.5,66.4c-7,10.3-9.2,19.9-4.9,25.5
		c7.3,9.5,30.4,4,51.6-12.2c21.2-16.2,32.6-37.1,25.3-46.6c-4.3-5.6-14.2-6-25.9-1.9c-31.4-24.3-41.4-60.5-44.5-84.5
		c18.1-3.6,54.9-6.9,85.1,16.4c-0.8,10.2,1.5,18,6.9,20.2c9,3.8,23.3-9.5,31.8-29.8c8.5-20.2,8.1-39.7-1-43.5
		c-5.4-2.3-12.5,1.5-19.3,9.2c-29.1-4.1-49.4-22-62-37.1c1.2-2.7,2.3-5.5,3.4-8.3c17.8-10.5,62-31.4,108.3-14.6
		c2.9,12.1,8.5,20.3,15.5,20.9c11.9,1.1,23.5-19.7,25.8-46.3C729.3,391.5,721.6,369,709.7,368z"/>
	<path class="st0" d="M496.4,181.4c-11.7-8.4-24.3-15.6-37.5-21.8c20.8,36.6,32,79.3,30.2,124.5c-5.1,129.2-114,229.7-243.1,224.6
		c-32-1.3-62.2-9-89.5-21.7c7.9,13.9,17.1,26.9,27.6,38.9c40.8,46.6,100,77,166.8,79.6c129.1,5.1,238-95.4,243.1-224.6
		C597.1,299.2,558.1,225.7,496.4,181.4z"/>
</g>
<rect x="92.2" y="313" class="st1" width="530" height="233"/>
<text transform="matrix(1 0 0 1 130.0635 360.8394)"><tspan x="0" y="0" class="st2 st3 st4">¡ TIENES UNA</tspan><tspan x="11.4" y="78" class="st2 st3 st4">INVITACIÓN!</tspan></text>
</svg>
