<svg xmlns="http://www.w3.org/2000/svg" viewBox="0 0 1920 1080"><defs><style>.cls-1{isolation:isolate;}.cls-2{opacity:0.32;}.cls-3,.cls-4{fill:#f8af2c;}.cls-4{mix-blend-mode:multiply;}</style></defs><g class="cls-1"><g id="Capa_1" data-name="Capa 1"><g class="cls-2"><path class="cls-3" d="M1306,539.74c-7.06-.63-14,6.45-19,17.85-42.75,7.41-78.73-13.66-97.51-28-.42-7.25-1.28-14.35-2.35-21.42,11.51-16.24,32.58-38.46,64.54-44,7,7.44,14.31,11,19.61,8.57,8.92-4.11,8.71-23.63-.48-43.61s-23.88-32.84-32.81-28.73c-5.29,2.43-7.34,10.3-6.24,20.46-20.92,17.3-45.68,21.16-64.86,20.91-2.12-4.38-4.56-8.55-6.94-12.78,11.2-20.8,30.56-45.82,62.48-57.79,10,7.31,19.61,9.91,25.39,5.79,9.74-6.94,5.05-30.23-10.48-52s-36-33.85-45.75-26.91c-5.78,4.12-6.45,14-2.83,25.89-23.82,28.75-57.51,38.17-81.51,41.08-4.87-4.14-9.66-8.37-14.87-12.1-.73-.53-1.57-.91-2.31-1.43,2.1-19.65,9.21-46.34,31.67-66,9.84,2.72,18,2,21.2-2.87,5.49-8.15-4.85-24.72-23.09-37s-37.47-15.64-43-7.49c-3.25,4.84-.91,12.63,5.31,20.73-12,34.64-42.51,52-60.08,59.44-11.83-16.39-37.42-59.06-24.57-107.39,11.79-4,19.45-10.23,19.45-17.32,0-12-21.69-21.66-48.46-21.66s-48.47,9.7-48.47,21.66c0,7.09,7.67,13.37,19.45,17.32,10.21,38.4-3.88,73.29-16,94.23-7.64-10.59-15.4-26.15-13.64-44.93,6.06-3.23,9.66-7.35,9-11.21-1.09-6.52-13.8-9.82-28.38-7.37s-25.52,9.72-24.43,16.23c.65,3.86,5.4,6.58,12.18,7.66,7.47,16.44,5.74,33,2.28,45.39-19.07-14-41.26-36.8-48.62-70.26,8.66-8.92,12.59-18,9.34-24.31-5.49-10.63-29.21-9.3-53,3s-38.62,30.84-33.14,41.47c3.25,6.3,12.94,8.36,25.23,6.47C808,297.84,810.69,337,809.1,361c-1.74,1.4-3.44,2.86-5.14,4.31-19.87-1.17-49.23-7.23-70.66-30.88,2.54-9.9,1.64-18-3.25-21.15-8.25-5.34-24.62,5.29-36.58,23.74s-15,37.75-6.72,43.09c4.89,3.17,12.64.69,20.63-5.67,25.08,8.17,41.48,26.26,51.62,42.27-.31.47-.63.93-.93,1.4-16.46,6.62-67.32,23.15-113-3.29-.73-12.41-4.78-21.45-11.62-23.31-11.55-3.13-26.58,15.28-33.59,41.11s-3.33,49.31,8.21,52.44c6.85,1.86,14.91-3.89,21.81-14.24,44,.23,75.71,27.88,91.44,45.27-17.36,9.56-43.69,19.23-73,11.8-3.35-9.65-8.58-15.88-14.41-15.82-9.82.12-17.59,18-17.33,40s8.42,39.72,18.25,39.61c5.83-.07,10.91-6.42,14-16.14,31.2-8.68,59.71,2.32,77.08,12.05a233.43,233.43,0,0,0,9,33.83c-10.47,21.49-32.65,55.19-73,67.87-9.65-7.84-19-10.95-25-7.16-10.11,6.4-6.69,29.92,7.64,52.53s34.13,35.76,44.23,29.35c6-3.79,7.19-13.62,4.22-25.69,27.71-30,66-36.28,90.08-36.93,2.58,2.82,5.25,5.55,8,8.24,1.15,19.71-1.23,51.94-24.39,77-10.08-1.66-18.05,0-20.77,5.11-4.6,8.68,7.43,24.06,26.87,34.34s38.92,11.58,43.52,2.9c2.72-5.15-.43-12.66-7.48-20.05,6.2-26.88,24-45.09,39.54-56.51,8.67,17.87,26.87,64.8,5.54,110.53-12.3,1.81-20.94,6.65-22.19,13.63-2.1,11.77,17.56,25.13,43.91,29.83s49.42-1,51.52-12.8c1.24-7-5.2-14.51-16.11-20.47-3.7-44.35,21.62-78.61,37.53-95.62,6.62.21,13.19.12,19.7-.21,15.24,12.76,36.2,36,38.94,68.89C999.19,852.5,995,859.48,997,865c3.31,9.26,22.77,10.76,43.48,3.37s34.82-20.89,31.52-30.14c-2-5.49-9.62-8.23-19.83-8-15.54-22.58-17.07-47.82-15-67,5.51-2,10.85-4.42,16.16-6.85,22.36,8.62,57.5,27.75,73.57,66.51-7,10.3-9.23,19.94-4.92,25.57,7.26,9.5,30.39,4,51.65-12.24s32.6-37.15,25.34-46.65c-4.31-5.63-14.21-6-26-1.94C1141.47,763.3,1131.47,727,1128.4,703c18.12-3.58,55-6.91,85.15,16.42-.76,10.18,1.55,18,6.92,20.24,9.06,3.82,23.31-9.52,31.84-29.79s8.11-39.79-1-43.6c-5.37-2.26-12.56,1.54-19.31,9.21-29.11-4.06-49.48-22-62.07-37.16,1.22-2.74,2.32-5.55,3.44-8.34,17.85-10.49,62.06-31.44,108.46-14.6,2.9,12.09,8.47,20.28,15.54,20.9,11.91,1.06,23.48-19.7,25.84-46.36S1317.88,540.8,1306,539.74Z"/><path class="cls-4" d="M1092.39,352.91a233.81,233.81,0,0,0-37.51-21.82,233.18,233.18,0,0,1,30.2,124.62C1080,585,971,685.71,841.65,680.58A233.47,233.47,0,0,1,752,658.86a234.11,234.11,0,0,0,194.6,118.67c129.31,5.13,238.31-95.55,243.44-224.87A234,234,0,0,0,1092.39,352.91Z"/></g></g></g></svg>