<svg xmlns="http://www.w3.org/2000/svg" viewBox="0 0 726.49 735.19"><defs><style>.cls-1{isolation:isolate;}.cls-2,.cls-3{fill:#f8af2c;}.cls-3{mix-blend-mode:multiply;}.cls-4{font-size:65px;fill:#fff;font-family:GothamRounded-Bold, Gotham Rounded;font-weight:700;}.cls-5{letter-spacing:-0.07em;}.cls-6{letter-spacing:-0.02em;}</style></defs><g class="cls-1"><g id="Capa_1" data-name="Capa 1"><path class="cls-2" d="M709.67,368c-7.06-.62-14,6.45-18.95,17.83-42.69,7.4-78.63-13.64-97.38-28-.42-7.23-1.28-14.33-2.35-21.38,11.49-16.22,32.54-38.42,64.46-43.94,7,7.43,14.3,11,19.58,8.56,8.92-4.11,8.71-23.61-.48-43.56s-23.84-32.8-32.76-28.7c-5.29,2.43-7.34,10.3-6.24,20.44-20.89,17.28-45.62,21.13-64.78,20.88-2.11-4.37-4.55-8.54-6.92-12.76,11.18-20.78,30.52-45.76,62.39-57.72,10,7.3,19.59,9.9,25.36,5.79,9.73-6.93,5-30.2-10.46-52s-36-33.81-45.7-26.88c-5.77,4.11-6.43,14-2.82,25.86-23.8,28.71-57.44,38.12-81.41,41-4.86-4.14-9.65-8.36-14.85-12.09-.73-.53-1.57-.91-2.31-1.42,2.1-19.63,9.19-46.29,31.63-65.89,9.83,2.71,17.92,2,21.17-2.88,5.49-8.13-4.84-24.68-23.05-36.95s-37.43-15.62-42.91-7.48c-3.25,4.83-.92,12.61,5.29,20.71-12,34.59-42.45,51.91-60,59.37-11.81-16.38-37.37-59-24.54-107.27,11.78-3.94,19.43-10.21,19.43-17.29,0-12-21.67-21.63-48.4-21.63s-48.41,9.68-48.41,21.63c0,7.08,7.65,13.35,19.43,17.29,10.19,38.36-3.89,73.2-16,94.12C320,123.11,312.28,107.57,314,88.81c6-3.22,9.65-7.34,9-11.2-1.09-6.5-13.79-9.8-28.35-7.35S269.2,80,270.29,86.47c.65,3.86,5.39,6.57,12.17,7.65,7.45,16.41,5.73,33,2.27,45.33-19-14-41.21-36.75-48.56-70.17,8.65-8.91,12.58-18,9.33-24.28-5.48-10.62-29.18-9.29-52.93,3S154,78.78,159.47,89.39c3.25,6.3,12.92,8.36,25.2,6.46,27.66,30.53,30.33,69.61,28.74,93.61-1.74,1.4-3.43,2.86-5.13,4.31-19.85-1.18-49.18-7.23-70.57-30.85,2.53-9.88,1.63-18-3.25-21.12-8.24-5.34-24.6,5.28-36.54,23.71s-15,37.7-6.71,43c4.88,3.16,12.62.69,20.6-5.67,25.06,8.17,41.44,26.24,51.56,42.22-.3.48-.63.93-.93,1.4-16.44,6.61-67.23,23.12-112.85-3.29-.72-12.39-4.77-21.42-11.61-23.27C26.45,216.81,11.43,235.19,4.43,261s-3.32,49.26,8.21,52.38c6.84,1.86,14.89-3.89,21.78-14.22,44,.22,75.62,27.84,91.33,45.21-17.34,9.55-43.64,19.21-72.91,11.79-3.35-9.64-8.57-15.87-14.39-15.8-9.82.12-17.57,18-17.31,40S29.55,420,39.36,419.88c5.82-.07,10.9-6.41,14-16.12,31.16-8.67,59.64,2.31,77,12a232.57,232.57,0,0,0,9,33.79c-10.46,21.47-32.62,55.13-72.87,67.79-9.64-7.83-19-10.94-25-7.15-10.09,6.39-6.68,29.88,7.63,52.47S83.19,598.4,93.28,592c6-3.79,7.18-13.61,4.21-25.66,27.68-29.93,65.88-36.23,90-36.88,2.58,2.81,5.25,5.53,8,8.22,1.15,19.69-1.22,51.88-24.35,76.89-10.07-1.66-18-.05-20.76,5.09-4.59,8.68,7.43,24,26.84,34.31s38.88,11.56,43.47,2.89c2.72-5.15-.43-12.64-7.46-20,6.19-26.84,23.93-45,39.48-56.44,8.66,17.85,26.84,64.72,5.54,110.39-12.28,1.82-20.92,6.65-22.16,13.62-2.1,11.76,17.53,25.1,43.85,29.8s49.36-1,51.45-12.79c1.25-7-5.18-14.49-16.08-20.44-3.7-44.3,21.59-78.52,37.48-95.51q9.93.31,19.68-.21c15.22,12.74,36.15,36,38.89,68.81-8,6.3-12.21,13.27-10.26,18.75,3.31,9.24,22.75,10.75,43.43,3.36s34.78-20.86,31.48-30.1c-2-5.49-9.61-8.22-19.81-8-15.52-22.55-17-47.76-15-66.89,5.51-2,10.84-4.41,16.14-6.84,22.33,8.61,57.43,27.71,73.49,66.43-7,10.28-9.23,19.91-4.92,25.54,7.25,9.49,30.35,4,51.59-12.23S610,627,602.71,617.47c-4.3-5.63-14.19-6-25.94-1.94-31.4-24.26-41.38-60.49-44.45-84.48,18.1-3.57,54.92-6.9,85,16.4-.76,10.18,1.55,18,6.91,20.22,9.05,3.81,23.29-9.51,31.8-29.76s8.1-39.74-1-43.54c-5.36-2.26-12.55,1.54-19.29,9.19-29.06-4.05-49.42-22-62-37.11,1.22-2.74,2.32-5.54,3.43-8.33,17.83-10.47,62-31.4,108.33-14.58,2.9,12.08,8.47,20.25,15.52,20.88,11.9,1.05,23.46-19.68,25.82-46.31S721.57,369,709.67,368Z" transform="translate(-0.88 -0.65)"/><path class="cls-3" d="M496.36,181.38a233.71,233.71,0,0,0-37.47-21.79,232.81,232.81,0,0,1,30.17,124.46c-5.12,129.17-114,229.72-243.14,224.6A233.17,233.17,0,0,1,156.39,487,233.81,233.81,0,0,0,350.75,605.49c129.15,5.11,238-95.44,243.14-224.61A233.76,233.76,0,0,0,496.36,181.38Z" transform="translate(-0.88 -0.65)"/><text class="cls-4" transform="translate(129.18 360.19)">¡ TIENES UNA<tspan x="14.62" y="78">INVI</tspan><tspan class="cls-5" x="156.84" y="78">T</tspan><tspan class="cls-6" x="194.09" y="78">A</tspan><tspan x="242.25" y="78">CIÓN!</tspan></text></g></g></svg>